<svg id="Layer_1" xmlns="http://www.w3.org/2000/svg" viewBox="0 0 1226 137"><style>.st0{display:none;fill:#e5e5e5;enable-background:new}.st1{font-family:&apos;MuseoSans-500&apos;}.st2{font-size:172.8034px}.st3{enable-background:new}.st4{fill:#e5e5e5}</style><text id="text" transform="translate(.419 130.295)" class="st0 st1 st2">CODESLING.IO</text><g class="st3"><path class="st4" d="M70.8 6.2c29.4 0 44.4 16.1 44.4 16.1l-8.5 12.8S92.5 21.8 71.4 21.8c-27.3 0-45.1 20.7-45.1 46.7 0 26.1 18.1 48.2 45.3 48.2 23 0 37.7-15.9 37.7-15.9l9.2 12.3s-16.8 19.4-47.3 19.4c-36.6 0-62.4-28-62.4-63.8-.1-35.5 26.5-62.5 62-62.5zm124.5 0c35.3 0 62.6 27.1 62.6 62.2 0 35.9-27.3 63.9-62.6 63.9s-62.7-28-62.7-63.9c0-35 27.5-62.2 62.7-62.2zm0 110.4c24.9 0 44.9-20.7 44.9-48.2 0-26.6-20-46.7-44.9-46.7s-45.1 20-45.1 46.7c0 27.5 20.3 48.2 45.1 48.2zM282.8 8.3h40.4c37.3 0 61.9 22.3 61.9 60.8 0 38.7-24.5 61.2-61.9 61.2h-40.4V8.3zM322 115.4c27.5 0 45.4-16.2 45.4-46.3 0-29.9-18.1-46-45.4-46h-22.1v92.3H322zM410.7 8.3h70.9v14.9h-53.7v38.2h43.7v14.9h-43.7v39.2h56.7v14.9h-73.8V8.3zm99.3 95s13 13.1 31.1 13.1c11.4 0 21.1-6.4 21.1-18 0-26.4-59.1-20.7-59.1-58.2 0-19 16.4-34 39.4-34 22.6 0 34.6 12.3 34.6 12.3l-7.8 14.2s-11.2-10.5-26.8-10.5c-13 0-22.1 8.1-22.1 17.8 0 25.2 59.1 18.5 59.1 58.1 0 18.8-14.5 34.4-38.7 34.4-25.9 0-40.4-16.1-40.4-16.1l9.6-13.1zm94-95h17.1v107.1h54.6v14.9H604V8.3zm91.4 0h17.1v122h-17.1V8.3zm50.3 0h16.9l54.3 79.3c4.5 6.6 10.2 17.6 10.2 17.6h.3s-1.2-10.9-1.2-17.6V8.3h17.1v122h-16.8l-54.4-79.1c-4.5-6.7-10.2-17.8-10.2-17.8h-.3s1.2 10.9 1.2 17.8v79.1h-17.1V8.3zm184.9-2.1c29.2 0 44.4 14.7 44.4 14.7l-8.6 12.8S952.7 21.8 932 21.8c-28.7 0-46 20.9-46 47 0 28.3 19.4 47.9 44.9 47.9 21.1 0 34.6-15.2 34.6-15.2V83.8h-19.9V68.9H981v61.3h-15v-7.6c0-2.6.2-5.2.2-5.2h-.3s-13.3 14.9-37.5 14.9c-32.8 0-60-25.9-60-63.2 0-35.2 26.6-62.9 62.2-62.9zm73.8 106.3h17.6v17.8h-17.6v-17.8zM1050 8.3h17.1v122H1050V8.3zm104.7-2.1c35.3 0 62.6 27.1 62.6 62.2 0 35.9-27.3 63.9-62.6 63.9s-62.7-28-62.7-63.9c0-35 27.5-62.2 62.7-62.2zm0 110.4c24.9 0 44.9-20.7 44.9-48.2 0-26.6-20-46.7-44.9-46.7s-45.1 20-45.1 46.7c0 27.5 20.2 48.2 45.1 48.2z"/></g></svg>